<svg xmlns="http://www.w3.org/2000/svg" width="18" height="18" viewBox="0 0 18 18">
    <g fill="#979797" fill-rule="evenodd">
        <path fill-rule="nonzero" d="M3.913 0c-.428 0-.783.34-.783.75v.75H.783a.864.864 0 0 0-.5.135.68.68 0 0 0-.283.537v15.094c0 .188.067.38.208.519.139.14.344.215.543.215h16.498a.773.773 0 0 0 .543-.215.728.728 0 0 0 .208-.519V2.172a.68.68 0 0 0-.283-.537.864.864 0 0 0-.5-.135H14.87V.75c0-.41-.355-.75-.783-.75h-.783c-.428 0-.782.34-.782.75v.75H5.478V.75c0-.41-.354-.75-.782-.75h-.783zm0 .75h.783V3h-.783V.75zm9.391 0h.783V3h-.783V.75zM.783 2.25H3.13V3c0 .41.355.75.783.75h.783c.428 0 .782-.34.782-.75v-.75h7.044V3c0 .41.354.75.782.75h.783c.428 0 .783-.34.783-.75v-.75h2.347v2.625H.783V2.25zm0 3.375h16.434V17.25H.783V5.625z"/>
        <path d="M5.832 13.125v-.576l1.672-1.56c.42-.39.626-.732.626-1.032 0-.21-.082-.39-.238-.528a.878.878 0 0 0-.57-.192c-.225 0-.413.06-.557.186a.837.837 0 0 0-.282.492l-.57-.048c.057-.342.213-.606.47-.792.244-.18.55-.27.92-.27.388 0 .708.096.952.294.27.21.4.492.4.858 0 .45-.287.936-.863 1.458l-1.365 1.23v.012h2.26v.468H5.832zm6.136-4.248v.468h-1.81l-.019 1.146c.15-.066.339-.102.57-.102.42 0 .764.132 1.027.402.257.258.388.594.388.996 0 .414-.144.756-.438 1.02-.282.258-.645.39-1.083.39-.608 0-1.046-.258-1.309-.774l.526-.192c.17.354.445.534.827.534.269 0 .494-.09.676-.27a.98.98 0 0 0 .275-.708c0-.306-.106-.546-.313-.72-.206-.162-.463-.246-.782-.246-.295 0-.595.09-.902.264l.044-2.208h2.323z"/>
    </g>
</svg>
