<svg xmlns="http://www.w3.org/2000/svg" xmlns:xlink="http://www.w3.org/1999/xlink" width="30" height="30" viewBox="0 0 30 30">
    <defs>
        <path id="a" d="M0 .151h29.849V30H0z"/>
    </defs>
    <g fill="none" fill-rule="evenodd">
        <mask id="b" fill="#fff">
            <use xlink:href="#a"/>
        </mask>
        <path fill="#4A4A4A" d="M1.18 15.076C1.18 7.485 7.332 1.33 14.923 1.33S28.67 7.485 28.67 15.076c0 7.59-6.155 13.745-13.746 13.745-7.59 0-13.745-6.155-13.745-13.745m28.67 0C29.849 6.834 23.164.15 14.924.15 6.683.151 0 6.834 0 15.076 0 23.316 6.683 30 14.924 30c8.24 0 14.925-6.685 14.925-14.924" mask="url(#b)"/>
        <path fill="#4A4A4A" d="M15.561 24v-8.509h2.83l.45-2.822h-3.28v-1.414c0-.74.244-1.44 1.306-1.44H19V7h-3.023c-2.542 0-3.235 1.664-3.235 3.961v1.708H11v2.822h1.742V24h2.82z" mask="url(#b)"/>
    </g>
</svg>
