<svg xmlns="http://www.w3.org/2000/svg" width="29" height="29" viewBox="0 0 29 29">
    <g fill="none" fill-rule="evenodd">
        <path stroke="#4A4A4A" stroke-linecap="round" d="M14 8a6 6 0 1 1 0 12 6 6 0 0 1 0-12z"/>
        <path fill="#4A4A4A" d="M22 6a1 1 0 1 1 0 2 1 1 0 0 1 0-2"/>
        <path stroke="#4A4A4A" stroke-linecap="round" d="M7.256 1h14.488A6.256 6.256 0 0 1 28 7.256v14.488A6.256 6.256 0 0 1 21.744 28H7.256A6.256 6.256 0 0 1 1 21.744V7.256A6.256 6.256 0 0 1 7.256 1z"/>
    </g>
</svg>
